STARTFONT 2.1
FONT -WRI-Mathematica1-Medium-R-Normal--8-80-75-75-p-40-Adobe-FontSpecific
SIZE 8 75 75
FONTBOUNDINGBOX 13 9 -1 -2
STARTPROPERTIES 16
FOUNDRY "WRI"
FAMILY_NAME "Mathematica1"
WEIGHT_NAME "Medium"
SLANT "R"
SETWIDTH_NAME "Normal"
PIXEL_SIZE 8
POINT_SIZE 80
RESOLUTION_X 75
RESOLUTION_Y 75
SPACING "p"
AVERAGE_WIDTH 40
CHARSET_REGISTRY "Adobe"
CHARSET_ENCODING "FontSpecific"
FONT_DESCENT 2
FONT_ASCENT 7
DEFAULT_CHAR 32
ENDPROPERTIES
CHARS 224
STARTCHAR Space
ENCODING 32
SWIDTH 189 0
DWIDTH 2 0
BBX 0 0 0 0
BITMAP
ENDCHAR
STARTCHAR Exclamation
ENCODING 33
SWIDTH 333 0
DWIDTH 3 0
BBX 1 5 1 0
BITMAP
80
80
80
00
80
ENDCHAR
STARTCHAR ForAll
ENCODING 34
SWIDTH 587 0
DWIDTH 5 0
BBX 4 5 1 0
BITMAP
90
50
70
60
20
ENDCHAR
STARTCHAR NumberSign
ENCODING 35
SWIDTH 622 0
DWIDTH 5 0
BBX 5 5 0 0
BITMAP
30
30
f8
f8
50
ENDCHAR
STARTCHAR Exists
ENCODING 36
SWIDTH 587 0
DWIDTH 5 0
BBX 4 5 0 0
BITMAP
f0
10
70
10
f0
ENDCHAR
STARTCHAR Percent
ENCODING 37
SWIDTH 800 0
DWIDTH 6 0
BBX 5 5 1 0
BITMAP
50
e0
e8
58
58
ENDCHAR
STARTCHAR Ampersand
ENCODING 38
SWIDTH 778 0
DWIDTH 6 0
BBX 6 5 0 0
BITMAP
70
50
ec
b0
fc
ENDCHAR
STARTCHAR SmallMember
ENCODING 39
SWIDTH 486 0
DWIDTH 4 0
BBX 3 4 1 0
BITMAP
e0
20
e0
c0
ENDCHAR
STARTCHAR LParen
ENCODING 40
SWIDTH 321 0
DWIDTH 3 0
BBX 2 6 1 -1
BITMAP
40
80
80
80
80
40
ENDCHAR
STARTCHAR RParen
ENCODING 41
SWIDTH 321 0
DWIDTH 3 0
BBX 2 6 0 -1
BITMAP
80
40
40
40
40
80
ENDCHAR
STARTCHAR Star
ENCODING 42
SWIDTH 471 0
DWIDTH 4 0
BBX 1 3 2 0
BITMAP
80
80
80
ENDCHAR
STARTCHAR Plus
ENCODING 43
SWIDTH 644 0
DWIDTH 5 0
BBX 5 5 0 -1
BITMAP
20
20
f8
20
20
ENDCHAR
STARTCHAR Comma
ENCODING 44
SWIDTH 250 0
DWIDTH 2 0
BBX 2 3 1 -2
BITMAP
c0
40
80
ENDCHAR
STARTCHAR Minus
ENCODING 45
SWIDTH 644 0
DWIDTH 5 0
BBX 4 1 1 1
BITMAP
f0
ENDCHAR
STARTCHAR Period
ENCODING 46
SWIDTH 250 0
DWIDTH 2 0
BBX 1 1 1 0
BITMAP
80
ENDCHAR
STARTCHAR Slash
ENCODING 47
SWIDTH 317 0
DWIDTH 3 0
BBX 3 6 0 -1
BITMAP
20
40
40
40
80
80
ENDCHAR
STARTCHAR Zero
ENCODING 48
SWIDTH 500 0
DWIDTH 4 0
BBX 4 5 0 0
BITMAP
60
90
90
90
60
ENDCHAR
STARTCHAR One
ENCODING 49
SWIDTH 500 0
DWIDTH 4 0
BBX 3 5 1 0
BITMAP
c0
40
40
40
e0
ENDCHAR
STARTCHAR Two
ENCODING 50
SWIDTH 500 0
DWIDTH 4 0
BBX 4 5 0 0
BITMAP
70
90
20
50
f0
ENDCHAR
STARTCHAR Three
ENCODING 51
SWIDTH 500 0
DWIDTH 4 0
BBX 3 5 0 0
BITMAP
e0
20
40
20
c0
ENDCHAR
STARTCHAR Four
ENCODING 52
SWIDTH 500 0
DWIDTH 4 0
BBX 4 5 0 0
BITMAP
20
60
a0
f0
20
ENDCHAR
STARTCHAR Five
ENCODING 53
SWIDTH 500 0
DWIDTH 4 0
BBX 3 5 1 0
BITMAP
60
c0
20
20
c0
ENDCHAR
STARTCHAR Six
ENCODING 54
SWIDTH 500 0
DWIDTH 4 0
BBX 3 5 0 0
BITMAP
60
c0
e0
a0
60
ENDCHAR
STARTCHAR Seven
ENCODING 55
SWIDTH 500 0
DWIDTH 4 0
BBX 4 5 0 0
BITMAP
70
90
20
20
40
ENDCHAR
STARTCHAR Eight
ENCODING 56
SWIDTH 500 0
DWIDTH 4 0
BBX 3 5 0 0
BITMAP
e0
a0
40
a0
e0
ENDCHAR
STARTCHAR Nine
ENCODING 57
SWIDTH 500 0
DWIDTH 4 0
BBX 3 5 0 0
BITMAP
c0
a0
e0
60
c0
ENDCHAR
STARTCHAR Colon
ENCODING 58
SWIDTH 278 0
DWIDTH 2 0
BBX 1 4 1 0
BITMAP
80
00
00
80
ENDCHAR
STARTCHAR SemiColon
ENCODING 59
SWIDTH 278 0
DWIDTH 2 0
BBX 2 5 1 -1
BITMAP
80
00
00
c0
80
ENDCHAR
STARTCHAR Less
ENCODING 60
SWIDTH 644 0
DWIDTH 5 0
BBX 4 5 1 0
BITMAP
10
60
80
40
30
ENDCHAR
STARTCHAR Equal
ENCODING 61
SWIDTH 645 0
DWIDTH 5 0
BBX 4 3 1 0
BITMAP
f0
00
f0
ENDCHAR
STARTCHAR Greater
ENCODING 62
SWIDTH 644 0
DWIDTH 5 0
BBX 4 5 0 0
BITMAP
80
60
10
60
80
ENDCHAR
STARTCHAR Question
ENCODING 63
SWIDTH 444 0
DWIDTH 4 0
BBX 3 5 1 0
BITMAP
e0
a0
40
00
40
ENDCHAR
STARTCHAR TildeFullEqual
ENCODING 64
SWIDTH 644 0
DWIDTH 5 0
BBX 4 6 1 0
BITMAP
d0
b0
00
f0
00
f0
ENDCHAR
STARTCHAR CapAlpha
ENCODING 65
SWIDTH 724 0
DWIDTH 6 0
BBX 7 5 0 0
BITMAP
10
38
28
3c
e6
ENDCHAR
STARTCHAR CapBeta
ENCODING 66
SWIDTH 639 0
DWIDTH 5 0
BBX 5 5 0 0
BITMAP
f8
48
70
48
f8
ENDCHAR
STARTCHAR CapChi
ENCODING 67
SWIDTH 725 0
DWIDTH 6 0
BBX 6 5 0 0
BITMAP
cc
30
30
30
cc
ENDCHAR
STARTCHAR CapDelta
ENCODING 68
SWIDTH 636 0
DWIDTH 5 0
BBX 5 5 0 0
BITMAP
20
50
50
50
f8
ENDCHAR
STARTCHAR CapEpsilon
ENCODING 69
SWIDTH 628 0
DWIDTH 5 0
BBX 5 5 0 0
BITMAP
f8
58
70
58
f8
ENDCHAR
STARTCHAR CapPhi
ENCODING 70
SWIDTH 637 0
DWIDTH 5 0
BBX 5 5 0 0
BITMAP
70
70
a8
70
70
ENDCHAR
STARTCHAR CapGamma
ENCODING 71
SWIDTH 592 0
DWIDTH 5 0
BBX 5 5 0 0
BITMAP
f8
48
40
40
e0
ENDCHAR
STARTCHAR CapEta
ENCODING 72
SWIDTH 730 0
DWIDTH 6 0
BBX 6 5 0 0
BITMAP
fc
48
78
48
fc
ENDCHAR
STARTCHAR CapIota
ENCODING 73
SWIDTH 351 0
DWIDTH 3 0
BBX 3 5 0 0
BITMAP
e0
40
40
40
e0
ENDCHAR
STARTCHAR CurlyTheta
ENCODING 74
SWIDTH 494 0
DWIDTH 4 0
BBX 4 5 0 0
BITMAP
60
60
b0
a0
c0
ENDCHAR
STARTCHAR CapKappa
ENCODING 75
SWIDTH 734 0
DWIDTH 6 0
BBX 6 5 0 0
BITMAP
ec
44
78
48
ec
ENDCHAR
STARTCHAR CapLambda
ENCODING 76
SWIDTH 716 0
DWIDTH 6 0
BBX 7 5 0 0
BITMAP
10
38
28
24
e6
ENDCHAR
STARTCHAR CapMu
ENCODING 77
SWIDTH 883 0
DWIDTH 7 0
BBX 7 5 0 0
BITMAP
ee
6c
6c
54
fe
ENDCHAR
STARTCHAR CapNu
ENCODING 78
SWIDTH 727 0
DWIDTH 6 0
BBX 6 5 0 0
BITMAP
dc
68
58
48
e8
ENDCHAR
STARTCHAR CapOmicron
ENCODING 79
SWIDTH 687 0
DWIDTH 5 0
BBX 5 5 0 0
BITMAP
70
88
88
88
70
ENDCHAR
STARTCHAR CapPi
ENCODING 80
SWIDTH 727 0
DWIDTH 6 0
BBX 6 5 0 0
BITMAP
fc
48
48
48
fc
ENDCHAR
STARTCHAR CapTheta
ENCODING 81
SWIDTH 687 0
DWIDTH 5 0
BBX 5 5 0 0
BITMAP
70
a8
a8
a8
70
ENDCHAR
STARTCHAR CapRho
ENCODING 82
SWIDTH 564 0
DWIDTH 5 0
BBX 5 5 0 0
BITMAP
f0
48
70
40
e0
ENDCHAR
STARTCHAR CapSigma
ENCODING 83
SWIDTH 572 0
DWIDTH 5 0
BBX 4 5 0 0
BITMAP
f0
50
40
70
f0
ENDCHAR
STARTCHAR CapTau
ENCODING 84
SWIDTH 604 0
DWIDTH 5 0
BBX 5 5 0 0
BITMAP
f8
20
20
20
70
ENDCHAR
STARTCHAR CapUpsilon
ENCODING 85
SWIDTH 684 0
DWIDTH 5 0
BBX 5 5 0 0
BITMAP
c8
50
20
20
70
ENDCHAR
STARTCHAR FinalSigma
ENCODING 86
SWIDTH 473 0
DWIDTH 4 0
BBX 3 5 0 -1
BITMAP
60
a0
80
60
60
ENDCHAR
STARTCHAR CapOmega
ENCODING 87
SWIDTH 748 0
DWIDTH 6 0
BBX 7 5 0 0
BITMAP
38
44
44
48
ee
ENDCHAR
STARTCHAR CapXi
ENCODING 88
SWIDTH 615 0
DWIDTH 5 0
BBX 4 5 0 0
BITMAP
f0
f0
60
f0
f0
ENDCHAR
STARTCHAR CapPsi
ENCODING 89
SWIDTH 616 0
DWIDTH 5 0
BBX 7 5 -1 0
BITMAP
fe
54
7c
10
38
ENDCHAR
STARTCHAR CapZeta
ENCODING 90
SWIDTH 635 0
DWIDTH 5 0
BBX 5 5 0 0
BITMAP
f8
10
20
40
f8
ENDCHAR
STARTCHAR LBracket
ENCODING 91
SWIDTH 333 0
DWIDTH 3 0
BBX 2 6 1 -1
BITMAP
c0
80
80
80
80
c0
ENDCHAR
STARTCHAR Therefore
ENCODING 92
SWIDTH 629 0
DWIDTH 5 0
BBX 5 4 0 0
BITMAP
20
00
00
88
ENDCHAR
STARTCHAR RBracket
ENCODING 93
SWIDTH 333 0
DWIDTH 3 0
BBX 2 6 0 -1
BITMAP
c0
40
40
40
40
c0
ENDCHAR
STARTCHAR Perpendicular
ENCODING 94
SWIDTH 712 0
DWIDTH 6 0
BBX 5 4 1 0
BITMAP
20
20
20
f8
ENDCHAR
STARTCHAR Underbar
ENCODING 95
SWIDTH 580 0
DWIDTH 5 0
BBX 4 1 0 -1
BITMAP
f0
ENDCHAR
STARTCHAR Hat
ENCODING 96
SWIDTH 312 0
DWIDTH 2 0
BBX 2 1 0 1
BITMAP
c0
ENDCHAR
STARTCHAR Alpha
ENCODING 97
SWIDTH 593 0
DWIDTH 5 0
BBX 4 4 0 0
BITMAP
70
a0
a0
f0
ENDCHAR
STARTCHAR Beta
ENCODING 98
SWIDTH 508 0
DWIDTH 4 0
BBX 5 7 -1 -2
BITMAP
18
28
30
48
78
40
80
ENDCHAR
STARTCHAR Chi
ENCODING 99
SWIDTH 555 0
DWIDTH 4 0
BBX 5 6 -1 -2
BITMAP
68
30
20
20
e0
b0
ENDCHAR
STARTCHAR Delta
ENCODING 100
SWIDTH 465 0
DWIDTH 4 0
BBX 3 5 0 0
BITMAP
60
40
a0
a0
c0
ENDCHAR
STARTCHAR Epsilon
ENCODING 101
SWIDTH 390 0
DWIDTH 3 0
BBX 3 4 0 0
BITMAP
60
80
e0
e0
ENDCHAR
STARTCHAR Phi
ENCODING 102
SWIDTH 550 0
DWIDTH 4 0
BBX 4 7 0 -2
BITMAP
20
70
b0
d0
e0
40
40
ENDCHAR
STARTCHAR Gamma
ENCODING 103
SWIDTH 518 0
DWIDTH 4 0
BBX 4 6 0 -2
BITMAP
70
b0
20
20
40
40
ENDCHAR
STARTCHAR Eta
ENCODING 104
SWIDTH 495 0
DWIDTH 4 0
BBX 4 6 0 -2
BITMAP
f0
50
90
a0
20
20
ENDCHAR
STARTCHAR Iota
ENCODING 105
SWIDTH 284 0
DWIDTH 2 0
BBX 2 4 0 0
BITMAP
40
40
c0
c0
ENDCHAR
STARTCHAR CurlyPhi
ENCODING 106
SWIDTH 569 0
DWIDTH 5 0
BBX 4 6 0 -2
BITMAP
b0
b0
b0
e0
40
40
ENDCHAR
STARTCHAR Kappa
ENCODING 107
SWIDTH 434 0
DWIDTH 3 0
BBX 3 4 0 0
BITMAP
60
c0
e0
a0
ENDCHAR
STARTCHAR Lambda
ENCODING 108
SWIDTH 514 0
DWIDTH 4 0
BBX 4 5 0 0
BITMAP
60
20
20
e0
b0
ENDCHAR
STARTCHAR Mu
ENCODING 109
SWIDTH 535 0
DWIDTH 4 0
BBX 5 6 0 -2
BITMAP
48
58
90
f8
80
80
ENDCHAR
STARTCHAR Nu
ENCODING 110
SWIDTH 460 0
DWIDTH 4 0
BBX 4 4 0 0
BITMAP
d0
60
40
40
ENDCHAR
STARTCHAR Omicron
ENCODING 111
SWIDTH 478 0
DWIDTH 4 0
BBX 3 4 0 0
BITMAP
60
a0
a0
c0
ENDCHAR
STARTCHAR Pi
ENCODING 112
SWIDTH 524 0
DWIDTH 4 0
BBX 3 4 0 0
BITMAP
e0
20
60
c0
ENDCHAR
STARTCHAR Theta
ENCODING 113
SWIDTH 439 0
DWIDTH 4 0
BBX 3 5 0 0
BITMAP
60
a0
e0
a0
c0
ENDCHAR
STARTCHAR Rho
ENCODING 114
SWIDTH 508 0
DWIDTH 4 0
BBX 5 6 -1 -2
BITMAP
38
48
48
70
40
c0
ENDCHAR
STARTCHAR Sigma
ENCODING 115
SWIDTH 679 0
DWIDTH 5 0
BBX 5 4 1 0
BITMAP
78
a0
a0
c0
ENDCHAR
STARTCHAR Tau
ENCODING 116
SWIDTH 474 0
DWIDTH 4 0
BBX 4 4 0 0
BITMAP
f0
20
40
40
ENDCHAR
STARTCHAR Upsilon
ENCODING 117
SWIDTH 525 0
DWIDTH 4 0
BBX 5 4 0 0
BITMAP
c8
48
50
70
ENDCHAR
STARTCHAR CurlyPi
ENCODING 118
SWIDTH 822 0
DWIDTH 7 0
BBX 5 4 1 0
BITMAP
78
88
a8
f0
ENDCHAR
STARTCHAR Omega
ENCODING 119
SWIDTH 691 0
DWIDTH 6 0
BBX 5 4 0 0
BITMAP
48
a8
a8
f0
ENDCHAR
STARTCHAR Xi
ENCODING 120
SWIDTH 437 0
DWIDTH 3 0
BBX 4 7 0 -2
BITMAP
30
40
30
c0
e0
20
40
ENDCHAR
STARTCHAR Psi
ENCODING 121
SWIDTH 617 0
DWIDTH 5 0
BBX 5 7 0 -2
BITMAP
10
b8
b0
a0
e0
40
40
ENDCHAR
STARTCHAR Zeta
ENCODING 122
SWIDTH 421 0
DWIDTH 3 0
BBX 4 7 0 -2
BITMAP
30
40
40
80
e0
20
40
ENDCHAR
STARTCHAR LBrace
ENCODING 123
SWIDTH 328 0
DWIDTH 3 0
BBX 3 6 0 -1
BITMAP
60
40
80
40
40
60
ENDCHAR
STARTCHAR VertBar
ENCODING 124
SWIDTH 200 0
DWIDTH 2 0
BBX 1 6 0 -1
BITMAP
80
80
80
80
80
80
ENDCHAR
STARTCHAR RBrace
ENCODING 125
SWIDTH 328 0
DWIDTH 3 0
BBX 3 6 0 -1
BITMAP
c0
40
20
40
40
c0
ENDCHAR
STARTCHAR Tilde
ENCODING 126
SWIDTH 644 0
DWIDTH 5 0
BBX 4 2 0 1
BITMAP
d0
b0
ENDCHAR
STARTCHAR DEL
ENCODING 127
SWIDTH 189 0
DWIDTH 2 0
BBX 0 0 0 0
BITMAP
ENDCHAR
STARTCHAR FractionBarExt
ENCODING 128
SWIDTH 165 0
DWIDTH 1 0
BBX 1 1 0 1
BITMAP
80
ENDCHAR
STARTCHAR EscapeChar
ENCODING 129
SWIDTH 297 0
DWIDTH 2 0
BBX 1 5 1 -1
BITMAP
80
00
80
00
80
ENDCHAR
STARTCHAR SelectPlaceholder
ENCODING 130
SWIDTH 595 0
DWIDTH 5 0
BBX 4 4 1 0
BITMAP
f0
f0
f0
f0
ENDCHAR
STARTCHAR Placeholder
ENCODING 131
SWIDTH 589 0
DWIDTH 5 0
BBX 4 4 1 0
BITMAP
f0
90
90
f0
ENDCHAR
STARTCHAR Continuation
ENCODING 132
SWIDTH 533 0
DWIDTH 4 0
BBX 3 5 0 0
BITMAP
80
00
40
00
20
ENDCHAR
STARTCHAR Skeleton
ENCODING 133
SWIDTH 333 0
DWIDTH 3 0
BBX 2 1 0 1
BITMAP
c0
ENDCHAR
STARTCHAR LSkeleton
ENCODING 134
SWIDTH 1000 0
DWIDTH 8 0
BBX 7 5 1 0
BITMAP
12
6c
90
48
36
ENDCHAR
STARTCHAR RSkeleton
ENCODING 135
SWIDTH 1000 0
DWIDTH 8 0
BBX 7 5 0 0
BITMAP
90
6c
12
24
d8
ENDCHAR
STARTCHAR Spacer
ENCODING 136
SWIDTH 250 0
DWIDTH 2 0
BBX 3 2 0 -2
BITMAP
a0
e0
ENDCHAR
STARTCHAR Cross
ENCODING 137
SWIDTH 522 0
DWIDTH 4 0
BBX 3 3 1 1
BITMAP
a0
40
a0
ENDCHAR
STARTCHAR DblEqual
ENCODING 138
SWIDTH 806 0
DWIDTH 6 0
BBX 6 3 0 0
BITMAP
fc
00
fc
ENDCHAR
STARTCHAR Grave
ENCODING 139
SWIDTH 224 0
DWIDTH 2 0
BBX 2 2 0 1
BITMAP
80
40
ENDCHAR
STARTCHAR Acute
ENCODING 140
SWIDTH 224 0
DWIDTH 2 0
BBX 2 2 0 1
BITMAP
40
80
ENDCHAR
STARTCHAR DoubleAcute
ENCODING 141
SWIDTH 364 0
DWIDTH 3 0
BBX 3 2 0 1
BITMAP
60
c0
ENDCHAR
STARTCHAR OverTilde
ENCODING 142
SWIDTH 331 0
DWIDTH 3 0
BBX 3 2 0 0
BITMAP
a0
e0
ENDCHAR
STARTCHAR OverBar
ENCODING 143
SWIDTH 312 0
DWIDTH 2 0
BBX 3 1 0 0
BITMAP
e0
ENDCHAR
STARTCHAR DblUpDownArrow
ENCODING 144
SWIDTH 629 0
DWIDTH 5 0
BBX 5 8 1 -1
BITMAP
70
d8
50
50
50
50
d8
70
ENDCHAR
STARTCHAR DblUpExtens1
ENCODING 145
SWIDTH 629 0
DWIDTH 5 0
BBX 2 4 2 -1
BITMAP
c0
c0
c0
c0
ENDCHAR
STARTCHAR DblLongLArrow
ENCODING 146
SWIDTH 1377 0
DWIDTH 11 0
BBX 10 5 1 -1
BITMAP
4000
ffc0
8000
ffc0
4000
ENDCHAR
STARTCHAR DblExtens
ENCODING 147
SWIDTH 448 0
DWIDTH 4 0
BBX 2 3 1 0
BITMAP
c0
00
c0
ENDCHAR
STARTCHAR DblLongRArrow
ENCODING 148
SWIDTH 1377 0
DWIDTH 11 0
BBX 9 5 1 -1
BITMAP
0100
ff80
0080
ff80
0100
ENDCHAR
STARTCHAR DblLRArrow2
ENCODING 149
SWIDTH 1110 0
DWIDTH 9 0
BBX 7 5 1 -1
BITMAP
44
fe
82
fe
44
ENDCHAR
STARTCHAR DblLongLRArrow
ENCODING 150
SWIDTH 1606 0
DWIDTH 13 0
BBX 11 5 1 -1
BITMAP
4040
ffe0
8020
ffe0
4040
ENDCHAR
STARTCHAR UpDownArrow
ENCODING 151
SWIDTH 533 0
DWIDTH 4 0
BBX 3 7 1 0
BITMAP
40
e0
40
40
40
e0
40
ENDCHAR
STARTCHAR LongLArrow
ENCODING 152
SWIDTH 1374 0
DWIDTH 11 0
BBX 10 3 1 0
BITMAP
4000
ffc0
4000
ENDCHAR
STARTCHAR LongRArrow
ENCODING 153
SWIDTH 1382 0
DWIDTH 11 0
BBX 10 3 1 0
BITMAP
0080
ffc0
0080
ENDCHAR
STARTCHAR LongLRArrow
ENCODING 154
SWIDTH 1605 0
DWIDTH 13 0
BBX 11 3 1 0
BITMAP
4040
ffe0
4040
ENDCHAR
STARTCHAR ColonEqual
ENCODING 155
SWIDTH 837 0
DWIDTH 7 0
BBX 6 3 1 0
BITMAP
bc
00
bc
ENDCHAR
STARTCHAR Diamond2
ENCODING 156
SWIDTH 512 0
DWIDTH 4 0
BBX 3 3 1 1
BITMAP
40
a0
40
ENDCHAR
STARTCHAR NotSquareSprsetEqual
ENCODING 157
SWIDTH 657 0
DWIDTH 5 0
BBX 4 6 1 -2
BITMAP
e0
10
10
e0
00
f0
ENDCHAR
STARTCHAR AtSign
ENCODING 158
SWIDTH 685 0
DWIDTH 5 0
BBX 4 4 1 0
BITMAP
70
f0
f0
60
ENDCHAR
STARTCHAR Solidmedsqr
ENCODING 159
SWIDTH 519 0
DWIDTH 4 0
BBX 3 3 1 1
BITMAP
e0
e0
e0
ENDCHAR
STARTCHAR OverDot
ENCODING 160
SWIDTH 100 0
DWIDTH 1 0
BBX 1 1 0 1
BITMAP
80
ENDCHAR
STARTCHAR CurlyCapUpsilon
ENCODING 161
SWIDTH 648 0
DWIDTH 5 0
BBX 5 5 0 0
BITMAP
d8
28
20
20
70
ENDCHAR
STARTCHAR Prime
ENCODING 162
SWIDTH 347 0
DWIDTH 3 0
BBX 2 3 0 0
BITMAP
40
80
80
ENDCHAR
STARTCHAR LessEqual
ENCODING 163
SWIDTH 644 0
DWIDTH 5 0
BBX 4 4 1 0
BITMAP
10
e0
70
f0
ENDCHAR
STARTCHAR Fraction
ENCODING 164
SWIDTH 520 0
DWIDTH 4 0
BBX 4 5 0 0
BITMAP
10
20
40
40
80
ENDCHAR
STARTCHAR Infinity
ENCODING 165
SWIDTH 853 0
DWIDTH 7 0
BBX 6 3 0 0
BITMAP
dc
a4
fc
ENDCHAR
STARTCHAR RuleDelayed
ENCODING 166
SWIDTH 802 0
DWIDTH 6 0
BBX 5 5 1 -1
BITMAP
80
10
78
10
80
ENDCHAR
STARTCHAR ClubSuit
ENCODING 167
SWIDTH 578 0
DWIDTH 5 0
BBX 5 4 0 0
BITMAP
70
70
f8
f8
ENDCHAR
STARTCHAR DiamondSuit
ENCODING 168
SWIDTH 531 0
DWIDTH 4 0
BBX 3 5 1 0
BITMAP
40
c0
a0
c0
40
ENDCHAR
STARTCHAR HeartSuit
ENCODING 169
SWIDTH 605 0
DWIDTH 5 0
BBX 4 4 0 0
BITMAP
f0
90
60
20
ENDCHAR
STARTCHAR SpadeSuit
ENCODING 170
SWIDTH 542 0
DWIDTH 4 0
BBX 5 5 0 0
BITMAP
20
70
f8
f8
20
ENDCHAR
STARTCHAR LRArrow
ENCODING 171
SWIDTH 973 0
DWIDTH 8 0
BBX 6 3 1 0
BITMAP
48
fc
48
ENDCHAR
STARTCHAR LArrow
ENCODING 172
SWIDTH 822 0
DWIDTH 7 0
BBX 5 3 1 0
BITMAP
40
f8
40
ENDCHAR
STARTCHAR UpArrow
ENCODING 173
SWIDTH 533 0
DWIDTH 4 0
BBX 3 6 1 0
BITMAP
40
e0
40
40
40
40
ENDCHAR
STARTCHAR RArrow
ENCODING 174
SWIDTH 822 0
DWIDTH 7 0
BBX 5 3 1 0
BITMAP
10
f8
10
ENDCHAR
STARTCHAR DownArrow
ENCODING 175
SWIDTH 533 0
DWIDTH 4 0
BBX 3 6 1 0
BITMAP
40
40
40
40
e0
40
ENDCHAR
STARTCHAR Degree
ENCODING 176
SWIDTH 364 0
DWIDTH 3 0
BBX 2 2 0 3
BITMAP
c0
c0
ENDCHAR
STARTCHAR PlusMinus
ENCODING 177
SWIDTH 644 0
DWIDTH 5 0
BBX 5 5 0 0
BITMAP
20
20
f8
20
f8
ENDCHAR
STARTCHAR DoublePrime
ENCODING 178
SWIDTH 589 0
DWIDTH 5 0
BBX 4 3 0 0
BITMAP
50
a0
a0
ENDCHAR
STARTCHAR GreaterEqual
ENCODING 179
SWIDTH 644 0
DWIDTH 5 0
BBX 4 4 0 0
BITMAP
80
70
e0
f0
ENDCHAR
STARTCHAR Multiply
ENCODING 180
SWIDTH 642 0
DWIDTH 5 0
BBX 3 3 1 1
BITMAP
a0
40
a0
ENDCHAR
STARTCHAR Proportional
ENCODING 181
SWIDTH 670 0
DWIDTH 5 0
BBX 5 3 0 0
BITMAP
d8
a0
d8
ENDCHAR
STARTCHAR PartialDiff
ENCODING 182
SWIDTH 512 0
DWIDTH 4 0
BBX 4 6 0 0
BITMAP
70
10
70
90
90
e0
ENDCHAR
STARTCHAR Bullet
ENCODING 183
SWIDTH 314 0
DWIDTH 3 0
BBX 2 2 0 1
BITMAP
c0
c0
ENDCHAR
STARTCHAR Divide
ENCODING 184
SWIDTH 644 0
DWIDTH 5 0
BBX 5 5 0 -1
BITMAP
20
00
f8
00
20
ENDCHAR
STARTCHAR NotEqual
ENCODING 185
SWIDTH 644 0
DWIDTH 5 0
BBX 4 5 1 0
BITMAP
20
20
f0
60
f0
ENDCHAR
STARTCHAR Equivalence
ENCODING 186
SWIDTH 644 0
DWIDTH 5 0
BBX 4 3 1 0
BITMAP
f0
f0
f0
ENDCHAR
STARTCHAR Approxequal
ENCODING 187
SWIDTH 644 0
DWIDTH 5 0
BBX 4 4 0 -1
BITMAP
d0
b0
d0
b0
ENDCHAR
STARTCHAR Ellipsis
ENCODING 188
SWIDTH 1000 0
DWIDTH 8 0
BBX 7 1 1 0
BITMAP
92
ENDCHAR
STARTCHAR ArrowVertEx
ENCODING 189
SWIDTH 533 0
DWIDTH 4 0
BBX 1 3 2 0
BITMAP
80
80
80
ENDCHAR
STARTCHAR ArrowHorizEx
ENCODING 190
SWIDTH 324 0
DWIDTH 3 0
BBX 3 1 0 1
BITMAP
e0
ENDCHAR
STARTCHAR CarriageReturn
ENCODING 191
SWIDTH 628 0
DWIDTH 5 0
BBX 4 6 0 -1
BITMAP
10
50
90
f0
80
40
ENDCHAR
STARTCHAR Aleph
ENCODING 192
SWIDTH 639 0
DWIDTH 5 0
BBX 5 6 0 0
BITMAP
88
88
50
b0
98
88
ENDCHAR
STARTCHAR IFraktur
ENCODING 193
SWIDTH 318 0
DWIDTH 3 0
BBX 3 6 0 0
BITMAP
e0
40
40
40
40
60
ENDCHAR
STARTCHAR RFraktur
ENCODING 194
SWIDTH 690 0
DWIDTH 6 0
BBX 5 6 0 0
BITMAP
70
d0
50
70
50
e8
ENDCHAR
STARTCHAR Weierstrass
ENCODING 195
SWIDTH 624 0
DWIDTH 5 0
BBX 4 6 0 -2
BITMAP
30
d0
d0
e0
80
80
ENDCHAR
STARTCHAR CircleMultiply
ENCODING 196
SWIDTH 797 0
DWIDTH 6 0
BBX 5 5 1 -1
BITMAP
70
d8
a8
d8
70
ENDCHAR
STARTCHAR CirclePlus
ENCODING 197
SWIDTH 797 0
DWIDTH 6 0
BBX 5 5 1 -1
BITMAP
70
a8
f8
a8
70
ENDCHAR
STARTCHAR EmptySet
ENCODING 198
SWIDTH 722 0
DWIDTH 6 0
BBX 5 7 0 -1
BITMAP
10
70
a8
a8
a8
70
40
ENDCHAR
STARTCHAR Union
ENCODING 199
SWIDTH 715 0
DWIDTH 6 0
BBX 4 6 1 0
BITMAP
90
90
90
90
90
60
ENDCHAR
STARTCHAR Intersection
ENCODING 200
SWIDTH 715 0
DWIDTH 6 0
BBX 4 6 1 0
BITMAP
60
90
90
90
90
90
ENDCHAR
STARTCHAR ProperSuperset
ENCODING 201
SWIDTH 657 0
DWIDTH 5 0
BBX 4 4 1 0
BITMAP
e0
10
10
e0
ENDCHAR
STARTCHAR NbSpace
ENCODING 202
SWIDTH 189 0
DWIDTH 2 0
BBX 0 0 0 0
BITMAP
ENDCHAR
STARTCHAR NotSubset
ENCODING 203
SWIDTH 657 0
DWIDTH 5 0
BBX 4 6 1 -1
BITMAP
20
70
a0
c0
70
40
ENDCHAR
STARTCHAR ProperSubset
ENCODING 204
SWIDTH 657 0
DWIDTH 5 0
BBX 4 4 0 0
BITMAP
70
80
80
70
ENDCHAR
STARTCHAR ReflexSubset
ENCODING 205
SWIDTH 657 0
DWIDTH 5 0
BBX 4 6 1 -2
BITMAP
70
80
80
70
00
f0
ENDCHAR
STARTCHAR Element
ENCODING 206
SWIDTH 657 0
DWIDTH 5 0
BBX 4 4 1 0
BITMAP
70
80
f0
70
ENDCHAR
STARTCHAR NotElement
ENCODING 207
SWIDTH 657 0
DWIDTH 5 0
BBX 4 6 1 -1
BITMAP
10
70
a0
f0
70
40
ENDCHAR
STARTCHAR Angle
ENCODING 208
SWIDTH 486 0
DWIDTH 4 0
BBX 2 4 1 0
BITMAP
80
80
80
c0
ENDCHAR
STARTCHAR Gradient
ENCODING 209
SWIDTH 664 0
DWIDTH 5 0
BBX 5 5 0 0
BITMAP
f8
50
50
70
20
ENDCHAR
STARTCHAR RegTM
ENCODING 210
SWIDTH 757 0
DWIDTH 6 0
BBX 5 6 0 -1
BITMAP
70
d8
b8
b8
f8
70
ENDCHAR
STARTCHAR Copyright
ENCODING 211
SWIDTH 757 0
DWIDTH 6 0
BBX 5 6 0 -1
BITMAP
70
d8
f8
d8
f8
70
ENDCHAR
STARTCHAR TM
ENCODING 212
SWIDTH 980 0
DWIDTH 8 0
BBX 6 3 1 2
BITMAP
f4
5c
54
ENDCHAR
STARTCHAR Product
ENCODING 213
SWIDTH 797 0
DWIDTH 6 0
BBX 6 6 0 0
BITMAP
fc
48
48
48
48
fc
ENDCHAR
STARTCHAR Radical
ENCODING 214
SWIDTH 781 0
DWIDTH 6 0
BBX 5 8 0 -2
BITMAP
08
08
10
50
d0
60
20
20
ENDCHAR
STARTCHAR DotMath
ENCODING 215
SWIDTH 239 0
DWIDTH 2 0
BBX 1 1 1 2
BITMAP
80
ENDCHAR
STARTCHAR LogicalNot
ENCODING 216
SWIDTH 640 0
DWIDTH 5 0
BBX 4 2 1 1
BITMAP
f0
10
ENDCHAR
STARTCHAR Wedge
ENCODING 217
SWIDTH 611 0
DWIDTH 5 0
BBX 5 5 0 0
BITMAP
20
50
50
90
88
ENDCHAR
STARTCHAR Vee
ENCODING 218
SWIDTH 611 0
DWIDTH 5 0
BBX 5 5 0 0
BITMAP
88
90
50
50
20
ENDCHAR
STARTCHAR DblLRArrow
ENCODING 219
SWIDTH 1110 0
DWIDTH 9 0
BBX 7 5 1 -1
BITMAP
44
fe
82
fe
44
ENDCHAR
STARTCHAR DblLArrow
ENCODING 220
SWIDTH 822 0
DWIDTH 7 0
BBX 5 5 1 -1
BITMAP
40
f8
80
f8
40
ENDCHAR
STARTCHAR DblUpArrow
ENCODING 221
SWIDTH 629 0
DWIDTH 5 0
BBX 5 6 1 0
BITMAP
70
d8
50
50
50
50
ENDCHAR
STARTCHAR DblRArrow
ENCODING 222
SWIDTH 822 0
DWIDTH 7 0
BBX 5 5 1 -1
BITMAP
10
f8
08
f8
10
ENDCHAR
STARTCHAR DblDownArrow
ENCODING 223
SWIDTH 629 0
DWIDTH 5 0
BBX 5 6 1 0
BITMAP
50
50
50
50
d8
70
ENDCHAR
STARTCHAR Lozenge
ENCODING 224
SWIDTH 453 0
DWIDTH 4 0
BBX 3 5 0 0
BITMAP
40
c0
a0
c0
40
ENDCHAR
STARTCHAR LAngle
ENCODING 225
SWIDTH 363 0
DWIDTH 3 0
BBX 3 6 1 -1
BITMAP
20
40
c0
c0
40
20
ENDCHAR
STARTCHAR Diffd
ENCODING 226
SWIDTH 570 0
DWIDTH 5 0
BBX 5 5 0 0
BITMAP
38
78
b0
b0
f0
ENDCHAR
STARTCHAR Expe
ENCODING 227
SWIDTH 520 0
DWIDTH 4 0
BBX 4 4 0 0
BITMAP
70
a0
c0
f0
ENDCHAR
STARTCHAR Imagi
ENCODING 228
SWIDTH 328 0
DWIDTH 3 0
BBX 4 5 -1 0
BITMAP
20
f0
50
60
60
ENDCHAR
STARTCHAR Sum
ENCODING 229
SWIDTH 684 0
DWIDTH 5 0
BBX 4 6 0 0
BITMAP
f0
90
40
80
90
f0
ENDCHAR
STARTCHAR LParenTop
ENCODING 230
SWIDTH 400 0
DWIDTH 3 0
BBX 3 7 1 -1
BITMAP
20
40
80
80
80
80
80
ENDCHAR
STARTCHAR LParenEx
ENCODING 231
SWIDTH 400 0
DWIDTH 3 0
BBX 1 4 1 -1
BITMAP
80
80
80
80
ENDCHAR
STARTCHAR LParenBot
ENCODING 232
SWIDTH 400 0
DWIDTH 3 0
BBX 3 7 1 0
BITMAP
80
80
80
80
80
40
20
ENDCHAR
STARTCHAR LBracketTop
ENCODING 233
SWIDTH 363 0
DWIDTH 3 0
BBX 2 2 1 -1
BITMAP
c0
80
ENDCHAR
STARTCHAR LBracketEx
ENCODING 234
SWIDTH 363 0
DWIDTH 3 0
BBX 1 4 1 -1
BITMAP
80
80
80
80
ENDCHAR
STARTCHAR LBracketBot
ENCODING 235
SWIDTH 363 0
DWIDTH 3 0
BBX 2 2 1 0
BITMAP
80
c0
ENDCHAR
STARTCHAR LBraceTop
ENCODING 236
SWIDTH 552 0
DWIDTH 4 0
BBX 2 6 2 -1
BITMAP
40
40
80
80
80
80
ENDCHAR
STARTCHAR LBraceMid
ENCODING 237
SWIDTH 552 0
DWIDTH 4 0
BBX 2 7 1 -1
BITMAP
40
40
80
80
40
40
40
ENDCHAR
STARTCHAR LBraceBot
ENCODING 238
SWIDTH 552 0
DWIDTH 4 0
BBX 2 6 2 0
BITMAP
80
80
80
80
40
40
ENDCHAR
STARTCHAR BraceEx
ENCODING 239
SWIDTH 552 0
DWIDTH 4 0
BBX 1 4 2 -1
BITMAP
80
80
80
80
ENDCHAR
STARTCHAR Slot
ENCODING 240
SWIDTH 710 0
DWIDTH 6 0
BBX 5 5 0 0
BITMAP
50
f8
50
50
f8
ENDCHAR
STARTCHAR RAngle
ENCODING 241
SWIDTH 363 0
DWIDTH 3 0
BBX 3 6 -1 -1
BITMAP
80
40
60
60
40
80
ENDCHAR
STARTCHAR Intergral
ENCODING 242
SWIDTH 668 0
DWIDTH 5 0
BBX 4 8 1 -1
BITMAP
30
40
40
40
40
40
40
c0
ENDCHAR
STARTCHAR IntegralTop
ENCODING 243
SWIDTH 976 0
DWIDTH 8 0
BBX 6 8 1 -1
BITMAP
04
04
04
04
08
08
98
f0
ENDCHAR
STARTCHAR IntegralEx
ENCODING 244
SWIDTH 976 0
DWIDTH 8 0
BBX 1 6 6 0
BITMAP
80
80
80
80
80
80
ENDCHAR
STARTCHAR IntegralBot
ENCODING 245
SWIDTH 976 0
DWIDTH 8 0
BBX 6 7 6 0
BITMAP
38
64
44
80
80
80
80
ENDCHAR
STARTCHAR RParenTop
ENCODING 246
SWIDTH 400 0
DWIDTH 3 0
BBX 3 7 -1 -1
BITMAP
80
40
40
20
20
20
20
ENDCHAR
STARTCHAR RParenEx
ENCODING 247
SWIDTH 400 0
DWIDTH 3 0
BBX 1 4 1 -1
BITMAP
80
80
80
80
ENDCHAR
STARTCHAR RParenBot
ENCODING 248
SWIDTH 400 0
DWIDTH 3 0
BBX 3 7 -1 0
BITMAP
20
20
20
20
40
40
80
ENDCHAR
STARTCHAR RBracketTop
ENCODING 249
SWIDTH 363 0
DWIDTH 3 0
BBX 2 2 0 -1
BITMAP
c0
40
ENDCHAR
STARTCHAR RBracketEx
ENCODING 250
SWIDTH 363 0
DWIDTH 3 0
BBX 1 4 1 -1
BITMAP
80
80
80
80
ENDCHAR
STARTCHAR RBracketBot
ENCODING 251
SWIDTH 363 0
DWIDTH 3 0
BBX 2 2 0 0
BITMAP
40
c0
ENDCHAR
STARTCHAR RBraceTop
ENCODING 252
SWIDTH 552 0
DWIDTH 4 0
BBX 2 6 0 -1
BITMAP
80
80
40
40
40
40
ENDCHAR
STARTCHAR RBraceMid
ENCODING 253
SWIDTH 552 0
DWIDTH 4 0
BBX 2 7 1 -1
BITMAP
80
80
80
40
80
80
80
ENDCHAR
STARTCHAR RBraceBot
ENCODING 254
SWIDTH 552 0
DWIDTH 4 0
BBX 2 6 0 0
BITMAP
40
40
40
40
80
80
ENDCHAR
STARTCHAR Wolf
ENCODING 255
SWIDTH 924 0
DWIDTH 7 0
BBX 6 7 0 -2
BITMAP
18
10
10
38
3c
50
90
ENDCHAR
ENDFONT
